<mxfile host="app.diagrams.net" modified="2024-03-14T02:44:23.747Z" agent="Mozilla/5.0 (Macintosh; Intel Mac OS X 10_15_7) AppleWebKit/605.1.15 (KHTML, like Gecko) Version/17.3.1 Safari/605.1.15" version="24.0.6" etag="VdtQ_T-jkHILc--zwKWZ" type="github">
  <diagram name="หน้า-1" id="nZxsAbW7uttgDyzMNT5k">
    <mxGraphModel>
      <root>
        <mxCell id="0" />
        <mxCell id="1" parent="0" />
      </root>
    </mxGraphModel>
  </diagram>
</mxfile>
